<svg width="24" height="24" viewBox="0 0 24 24" fill="none" xmlns="http://www.w3.org/2000/svg">
<path d="M13.5021 13.9091V19H14.3871V15.495H14.4343L15.8413 18.9851H16.5025L17.9094 15.5025H17.9567V19H18.8416V13.9091H17.7131L16.2017 17.598H16.142L14.6307 13.9091H13.5021Z" fill="#252525"/>
<path d="M9.5 6.5L15.5 12.5" stroke="#252525"/>
<path d="M4.79289 17.2071C5.18342 17.5976 5.81658 17.5976 6.20711 17.2071L7.5 15.9142L9.28361 15.5448L16.9142 7.91421C17.6953 7.13316 17.6953 5.86683 16.9142 5.08579C16.1332 4.30474 14.8668 4.30474 14.0858 5.08579L6.45518 12.7164L6.08578 14.5L4.79289 15.7929C4.40237 16.1834 4.40237 16.8166 4.79289 17.2071Z" stroke="#252525"/>
<path d="M16.9144 5.08579C16.1333 4.30474 14.867 4.30474 14.0859 5.08579L11.0859 8.08579L13.9144 10.9142L16.9144 7.91421C17.6954 7.13316 17.6954 5.86683 16.9144 5.08579Z" fill="#252525"/>
</svg>
